<svg width="20" height="20" viewBox="0 0 20 20" fill="none" xmlns="http://www.w3.org/2000/svg">
<path fill-rule="evenodd" clip-rule="evenodd" d="M10.8583 1.55838L1.7 0.166711C1.275 0.100045 0.841666 0.216711 0.516666 0.491711C0.191666 0.775044 0 1.18338 0 1.60838V19.1667C0 19.625 0.375 20 0.833333 20H3.54166V15.625C3.54166 14.8167 4.19166 14.1667 5 14.1667H7.08333C7.89166 14.1667 8.54166 14.8167 8.54166 15.625V20H12.0833V3.00004C12.0833 2.28338 11.5667 1.67504 10.8583 1.55838ZM4.58333 12.2917H3.33333C2.98833 12.2917 2.70833 12.0117 2.70833 11.6667C2.70833 11.3217 2.98833 11.0417 3.33333 11.0417H4.58333C4.92833 11.0417 5.20833 11.3217 5.20833 11.6667C5.20833 12.0117 4.92833 12.2917 4.58333 12.2917ZM3.33333 9.7917H4.58333C4.92833 9.7917 5.20833 9.5117 5.20833 9.1667C5.20833 8.8217 4.92833 8.5417 4.58333 8.5417H3.33333C2.98833 8.5417 2.70833 8.8217 2.70833 9.1667C2.70833 9.5117 2.98833 9.7917 3.33333 9.7917ZM4.58333 7.2917H3.33333C2.98833 7.2917 2.70833 7.0117 2.70833 6.66671C2.70833 6.32171 2.98833 6.04171 3.33333 6.04171H4.58333C4.92833 6.04171 5.20833 6.32171 5.20833 6.66671C5.20833 7.0117 4.92833 7.2917 4.58333 7.2917ZM3.33333 4.79171H4.58333C4.92833 4.79171 5.20833 4.51171 5.20833 4.16671C5.20833 3.82171 4.92833 3.54171 4.58333 3.54171H3.33333C2.98833 3.54171 2.70833 3.82171 2.70833 4.16671C2.70833 4.51171 2.98833 4.79171 3.33333 4.79171ZM8.74999 12.2917H7.49999C7.15499 12.2917 6.87499 12.0117 6.87499 11.6667C6.87499 11.3217 7.15499 11.0417 7.49999 11.0417H8.74999C9.09499 11.0417 9.37499 11.3217 9.37499 11.6667C9.37499 12.0117 9.09499 12.2917 8.74999 12.2917ZM7.49999 9.7917H8.74999C9.09499 9.7917 9.37499 9.5117 9.37499 9.1667C9.37499 8.8217 9.09499 8.5417 8.74999 8.5417H7.49999C7.15499 8.5417 6.87499 8.8217 6.87499 9.1667C6.87499 9.5117 7.15499 9.7917 7.49999 9.7917ZM8.74999 7.2917H7.49999C7.15499 7.2917 6.87499 7.0117 6.87499 6.66671C6.87499 6.32171 7.15499 6.04171 7.49999 6.04171H8.74999C9.09499 6.04171 9.37499 6.32171 9.37499 6.66671C9.37499 7.0117 9.09499 7.2917 8.74999 7.2917ZM7.49999 4.79171H8.74999C9.09499 4.79171 9.37499 4.51171 9.37499 4.16671C9.37499 3.82171 9.09499 3.54171 8.74999 3.54171H7.49999C7.15499 3.54171 6.87499 3.82171 6.87499 4.16671C6.87499 4.51171 7.15499 4.79171 7.49999 4.79171Z" fill="#141D2F"/>
<path fill-rule="evenodd" clip-rule="evenodd" d="M12.9166 7.79254L18.85 9.03504C19.5308 9.18587 20 9.77171 20 10.46V18.5417C20 19.3459 19.3458 20 18.5416 20H12.9166V7.79254ZM15.625 17.5H16.875C17.22 17.5 17.5 17.22 17.5 16.875C17.5 16.53 17.22 16.25 16.875 16.25H15.625C15.28 16.25 15 16.53 15 16.875C15 17.22 15.28 17.5 15.625 17.5ZM16.875 15H15.625C15.28 15 15 14.72 15 14.375C15 14.03 15.28 13.75 15.625 13.75H16.875C17.22 13.75 17.5 14.03 17.5 14.375C17.5 14.72 17.22 15 16.875 15ZM15.625 12.5H16.875C17.22 12.5 17.5 12.22 17.5 11.875C17.5 11.53 17.22 11.25 16.875 11.25H15.625C15.28 11.25 15 11.53 15 11.875C15 12.22 15.28 12.5 15.625 12.5Z" fill="#141D2F"/>
</svg>
